<svg width="32" height="32" viewBox="0 0 32 32" fill="none" xmlns="http://www.w3.org/2000/svg">
  <!-- Connect Four Board Background -->
  <rect x="2" y="4" width="28" height="24" rx="2" fill="#0066cc" stroke="#004499" stroke-width="1"/>
  
  <!-- Game Pieces -->
  <!-- Red pieces (player 1) -->
  <circle cx="6" cy="8" r="2" fill="#ff4444"/>
  <circle cx="10" cy="8" r="2" fill="#ff4444"/>
  <circle cx="14" cy="8" r="2" fill="#ff4444"/>
  <circle cx="18" cy="8" r="2" fill="#ff4444"/>
  <circle cx="22" cy="8" r="2" fill="#ff4444"/>
  <circle cx="26" cy="8" r="2" fill="#ff4444"/>
  
  <!-- Yellow pieces (player 2) -->
  <circle cx="6" cy="12" r="2" fill="#ffeb3b"/>
  <circle cx="10" cy="12" r="2" fill="#ffeb3b"/>
  <circle cx="14" cy="12" r="2" fill="#ffeb3b"/>
  <circle cx="18" cy="12" r="2" fill="#ffeb3b"/>
  <circle cx="22" cy="12" r="2" fill="#ffeb3b"/>
  <circle cx="26" cy="12" r="2" fill="#ffeb3b"/>
  
  <!-- Empty slots -->
  <circle cx="6" cy="16" r="2" fill="white" opacity="0.3"/>
  <circle cx="10" cy="16" r="2" fill="white" opacity="0.3"/>
  <circle cx="14" cy="16" r="2" fill="white" opacity="0.3"/>
  <circle cx="18" cy="16" r="2" fill="white" opacity="0.3"/>
  <circle cx="22" cy="16" r="2" fill="white" opacity="0.3"/>
  <circle cx="26" cy="16" r="2" fill="white" opacity="0.3"/>
  
  <circle cx="6" cy="20" r="2" fill="white" opacity="0.3"/>
  <circle cx="10" cy="20" r="2" fill="white" opacity="0.3"/>
  <circle cx="14" cy="20" r="2" fill="white" opacity="0.3"/>
  <circle cx="18" cy="20" r="2" fill="white" opacity="0.3"/>
  <circle cx="22" cy="20" r="2" fill="white" opacity="0.3"/>
  <circle cx="26" cy="20" r="2" fill="white" opacity="0.3"/>
  
  <circle cx="6" cy="24" r="2" fill="white" opacity="0.3"/>
  <circle cx="10" cy="24" r="2" fill="white" opacity="0.3"/>
  <circle cx="14" cy="24" r="2" fill="white" opacity="0.3"/>
  <circle cx="18" cy="24" r="2" fill="white" opacity="0.3"/>
  <circle cx="22" cy="24" r="2" fill="white" opacity="0.3"/>
  <circle cx="26" cy="24" r="2" fill="white" opacity="0.3"/>
</svg>
